<?xml version="1.0" encoding="UTF-8" standalone="no"?>
<!DOCTYPE svg PUBLIC "-//W3C//DTD SVG 1.1//EN" "http://www.w3.org/Graphics/SVG/1.1/DTD/svg11.dtd">
<svg width="100%" height="100%" viewBox="0 0 242 136" version="1.1" xmlns="http://www.w3.org/2000/svg" xmlns:xlink="http://www.w3.org/1999/xlink" xml:space="preserve" xmlns:serif="http://www.serif.com/" style="fill-rule:evenodd;clip-rule:evenodd;stroke-linejoin:round;stroke-miterlimit:2;">
    <g transform="matrix(1,0,0,1,-93.0592,-230.87)">
        <g>
            <path d="M177.771,286.358C177.075,286.696 176.415,287.098 175.688,287.297C172.078,288.271 168.469,289.271 164.677,289.542C162.271,289.724 159.911,290.521 157.531,290.703C154.193,290.974 150.833,290.953 147.474,290.995C145.703,291.042 143.911,290.906 142.141,290.927C136.078,291.021 130.156,290.068 124.276,288.724C122.531,288.339 122.052,288.682 122.255,290.453C122.823,295.786 124.161,300.917 126.432,305.818C128.453,310.198 130.656,314.443 133.901,318.031C135.625,319.958 137.26,322.047 139.646,323.271C139.891,323.411 140.099,323.568 140.323,323.729C140.281,323.818 140.234,323.932 140.188,324.021C139.87,324.021 139.505,324.135 139.255,324.021C138.417,323.656 137.578,323.271 136.828,322.771C132.495,319.823 128.682,316.281 125.047,312.49C123.208,310.583 121.188,308.88 118.693,307.792C116.104,306.656 113.474,305.479 111.042,304.047C108.208,302.391 106.026,300.005 105.141,296.76C104.37,293.854 105.594,290.995 108.229,289.521C110.385,288.318 112.656,288.203 114.969,289.156C116.943,289.974 116.969,289.927 117.036,287.797C117.104,285.682 117.193,283.526 117.557,281.464C118.146,278.151 120.375,276.38 123.594,275.745C124.229,275.63 124.865,275.469 125.797,275.266C124.708,274.401 123.87,273.724 122.984,273.063C120.734,271.453 118.51,269.818 116.219,268.25C112.995,266.052 109.729,263.87 106.438,261.781C102.646,259.354 100.693,255.745 99.625,251.594C99.151,249.688 99.401,247.781 100.328,246.052C101.104,244.599 102.214,243.578 104.005,243.693C105.823,243.828 106.776,244.646 107.026,246.464C107.276,248.141 107.411,249.823 107.505,251.526C107.661,254.474 108.526,257.177 109.865,259.786C110.75,261.51 112.313,262.531 113.766,263.688C120.964,269.297 128.182,274.901 135.328,280.599C137.578,282.417 139.714,284.391 141.641,286.526C144.135,289.292 147.224,289.656 150.604,289.385C151.151,289.359 151.719,289.25 152.266,289.271C157.667,289.521 162.932,288.406 168.266,287.703C170.828,287.365 173.375,286.661 175.917,286.161C176.525,286.04 177.154,285.99 177.771,285.932L177.771,286.358ZM119.578,304.182C119.714,304.068 119.781,303.682 119.693,303.458C119.443,302.391 119.172,301.302 118.781,300.281C118.625,299.87 118.193,299.578 117.719,299.01C116.854,299.646 115.948,300.031 115.536,300.734C115.083,301.484 115.88,302.094 116.469,302.547C117.24,303.115 118.036,303.641 118.828,304.141C119.031,304.276 119.417,304.297 119.578,304.182ZM128.953,277.719C127.839,276.536 126.661,275.88 125.026,276.651C124.865,276.74 124.641,276.719 124.458,276.766C122.734,277.151 121.167,277.854 120.078,279.354C119.51,280.167 119.24,281.078 119.964,281.87C120.76,282.755 121.688,283.573 122.667,284.302C123.661,285.047 124.661,284.823 125.75,284.255C127.615,283.302 129.568,282.552 131.474,281.714C131.859,281.552 132.266,281.417 132.948,281.167C132.198,280.443 131.651,279.917 131.063,279.422C130.359,278.854 129.568,278.375 128.953,277.719ZM112.859,297.849C113.542,299.302 114.198,299.505 115.698,298.917C116.198,298.734 116.651,298.51 117.125,298.328C117.896,298.057 118.146,297.51 118.036,296.76C117.786,295.375 117.557,293.969 117.26,292.583C117.057,291.589 116.557,291.313 115.536,291.516C114.016,291.813 112.271,293.99 112.203,295.969C112.339,296.375 112.521,297.146 112.859,297.849ZM147.474,343.135C150.427,343.271 153.396,343.021 156.396,343.021C156.828,343.021 157.281,343.203 157.714,343.292C157.688,343.427 157.688,343.589 157.667,343.724C157.255,343.792 156.87,343.906 156.464,343.927C155.531,343.953 154.578,343.927 153.625,343.974C151.016,344.089 148.406,344.427 145.818,344.359C140.458,344.245 135.083,344.089 129.724,343.589C126.635,343.292 123.594,342.385 120.578,341.615C116.104,340.453 111.745,339 107.594,337.052C104.688,335.667 101.625,334.281 99.172,332.26C94.359,328.313 91.771,323.182 93.703,316.828C94.313,314.828 95.698,312.99 96.995,311.266C98.766,308.906 101.078,307.089 103.828,305.885C104.146,305.75 104.438,305.547 104.849,305.318C104.573,304.932 104.302,304.615 104.099,304.25C103.01,302.411 101.49,300.688 101.01,298.693C100.125,294.99 100.078,291.156 102.76,287.979C104.052,286.432 105.87,285.615 107.865,285.547C109.229,285.505 110.615,285.729 111.995,285.932C112.042,285.932 112.271,285.958 112.589,286.026C112.609,286.047 112.656,286.047 112.677,286.047C112.703,286.047 112.745,286.073 112.771,286.073C113.313,286.208 114.063,286.432 114.745,286.932C114.745,286.932 112.974,286.953 111.292,286.797C104.531,286.229 101.172,293.469 103.438,298.464C104.849,301.573 106.865,304.026 109.818,305.75C111.703,306.865 113.474,308.109 115.313,309.292C115.854,309.63 116.38,309.974 116.943,310.266C119.031,311.38 121.234,312.333 123.188,313.651C124.823,314.76 126.25,316.234 127.656,317.667C128.089,318.099 128.203,318.849 128.474,319.458C128.365,319.526 128.25,319.594 128.135,319.661C127.865,319.438 127.547,319.234 127.339,318.938C125.594,316.349 122.87,315.078 120.214,313.786C117.625,312.516 114.927,311.448 112.292,310.266C111.339,309.813 110.406,309.266 109.479,308.745C108.75,308.339 108.047,308.292 107.344,308.745C103.62,311.063 98.922,317.734 100.036,323.885C100.693,327.516 102.87,330.104 105.844,331.922C108.953,333.849 112.203,335.641 115.583,337.052C119.693,338.776 123.979,340.047 128.453,340.635C131.38,341.021 134.286,341.724 137.214,342.115C140.62,342.568 144.047,342.974 147.474,343.135ZM109.953,254.292C109.344,252.906 108.911,251.458 108.458,250.026C108.25,249.411 108.161,248.208 108.161,248.208L109.589,250.661C109.589,250.682 109.615,250.708 109.635,250.729C110.453,252.047 111.318,253.339 111.974,254.724C113.042,256.974 114.495,258.901 116.333,260.578C119.464,263.464 122.552,266.411 125.708,269.297C127.297,270.75 128.953,272.068 130.63,273.406C130.906,273.63 131.406,273.698 131.766,273.63C134.557,273.177 137.328,272.495 140.141,272.224C145.521,271.703 150.88,272.156 156.234,272.635C159.938,272.974 163.656,273.245 167.359,273.563L167.359,274.063C166.677,274.063 165.974,274.109 165.292,274.063C161.5,273.766 157.734,273.474 153.943,273.177C153.807,273.177 153.693,273.156 153.578,273.156C149.516,273.089 145.453,272.839 141.411,273.021C138.896,273.13 136.375,273.859 133.88,274.38C133.49,274.448 133.172,274.813 132.63,275.177C134.469,276.766 136.146,278.307 137.964,279.693C138.417,280.057 139.349,280.078 139.984,279.917C144.365,278.896 148.792,279.307 153.193,279.625C154.172,279.693 155.167,279.693 156.146,279.807C156.938,279.896 157.714,280.099 158.505,280.26C158.484,280.375 158.484,280.51 158.458,280.646L155.51,280.646C154.672,280.646 153.807,280.531 153.036,280.714C151.036,281.193 149.063,281.781 147.089,282.37C146.677,282.484 146.318,282.755 145.974,283.031C144.318,284.344 144.276,285.047 145.75,286.568C145.839,286.682 146,286.75 146.068,286.797C145.953,287.635 145.547,287.75 145.021,287.344C142.979,285.776 140.823,284.323 139.005,282.531C135.76,279.307 132.219,276.49 128.589,273.745C125.958,271.75 123.594,269.365 121.12,267.161C118.807,265.099 116.516,262.964 114.109,260.969C111.953,259.198 111.021,256.698 109.953,254.292ZM114.177,321.411L114.109,321.411L114.109,322.953C114.109,324.135 114.495,324.406 115.651,324.115C116.557,323.885 117.49,323.568 118.396,323.568C119.849,323.547 120.375,324.135 120.667,325.589C120.917,326.745 120.734,327.833 120.125,328.786C118.854,330.719 117.333,332.375 114.745,332.26C114.083,332.24 113.339,331.964 112.813,331.578C111.724,330.74 110.635,329.901 110.156,328.469C109.979,327.901 109.385,327.38 108.865,326.995C108.068,326.406 107.776,325.703 107.776,324.771C107.797,322.635 107.958,320.573 109.094,318.708C109.865,317.417 111.224,316.781 112.495,317.146C113.495,317.417 114.151,318.505 114.177,319.979L114.177,321.411ZM115.177,328.401C114.927,328.786 114.719,329.245 114.609,329.786C115.151,329.672 115.583,329.469 115.99,329.219C116.401,328.969 116.766,328.677 117.083,328.359C117.401,328.042 117.719,327.677 117.943,327.266C118.193,326.859 118.396,326.427 118.51,325.885C117.969,325.974 117.536,326.203 117.125,326.448C116.719,326.677 116.38,326.995 116.036,327.313C115.719,327.63 115.422,327.995 115.177,328.401ZM111.427,322.5C111.589,321.594 111.703,320.661 111.5,319.688C110.932,320.505 110.656,321.391 110.453,322.297C110.297,323.203 110.182,324.135 110.385,325.109C110.953,324.292 111.224,323.411 111.427,322.5ZM122.234,324.932C120.125,323.635 118.672,319.734 119.307,317.37C119.49,316.62 120.031,315.964 120.396,315.281C120.484,315.349 120.599,315.417 120.714,315.49C120.349,319.958 121.552,323.547 126.5,326.042C128.365,326.974 130.406,327.516 132.401,328.151C133.719,328.583 135.083,328.854 136.396,329.245C138.578,329.88 140.755,330.219 143.047,330.219C144.797,330.198 146.542,330.536 148.542,330.74C148.198,330.922 148.042,331.036 147.88,331.057C144.865,331.354 141.891,331.328 138.917,330.719C136.943,330.307 134.922,330.24 132.948,329.833C131.563,329.536 130.177,329.104 128.906,328.495C126.635,327.406 124.391,326.245 122.234,324.932ZM122.323,251.318L122.323,251.229C120.281,240.719 125.026,235.089 128.271,232.547C128.385,232.458 128.521,232.365 128.635,232.276C129.859,231.344 130.839,230.911 130.948,230.87C130.63,231.255 130.359,231.594 130.089,231.958C130.109,231.958 130.109,231.979 130.109,231.979C130.063,232.026 130.021,232.073 129.953,232.141C118.875,246.781 128.792,255.292 130.063,256.292C130.089,256.313 130.109,256.333 130.13,256.333L130.156,256.359L130.203,256.38C130.224,256.406 130.224,256.406 130.245,256.406C132.63,257.469 135.01,258.036 137.349,258.245C148.089,259.151 157.781,252.229 163.25,250.979C163.865,250.844 164.521,250.729 165.177,250.661C171.396,250.005 178.115,252.953 176.755,263.349L176.755,263.443C175.255,274.63 160.458,284.87 159.552,285.479C159.641,285.344 159.979,285.005 160.458,284.458C161.297,283.505 162.635,281.938 164.089,280.078C166.021,277.604 168.177,274.583 169.719,271.635C171.578,268.115 172.578,264.688 171.328,262.443L171.328,262.417C168.38,257.151 158.276,260.01 154.443,261.354C154.422,261.375 154.422,261.375 154.396,261.375C153.922,261.557 153.443,261.76 152.969,261.896L152.943,261.896C152.943,261.896 152.922,261.922 152.875,261.922C152.833,261.943 152.76,261.964 152.672,261.99C152.625,261.99 152.604,262.01 152.557,262.01C152.536,262.031 152.516,262.031 152.49,262.031C152.422,262.057 152.375,262.078 152.307,262.078C152.266,262.099 152.198,262.099 152.151,262.125C151.99,262.172 151.833,262.214 151.651,262.24C150.245,262.578 147.771,263.099 144.818,263.396C140.349,263.849 134.833,263.781 130.359,261.849C127.932,260.443 125.661,258.786 124.161,256.313C123.484,255.203 123.005,254.042 122.667,252.865C122.641,252.839 122.641,252.818 122.641,252.797L122.641,252.75C122.505,252.271 122.417,251.797 122.323,251.318Z" style="fill:rgb(123,99,87);"/>
            <path d="M314.774,337.193C314.635,337.298 314.493,337.4 314.348,337.5C314.306,337.5 314.285,337.51 314.285,337.521C313.963,337.76 313.624,337.953 313.265,338.104C310.275,339.187 308.754,338.557 308.702,336.208C307.478,337.266 306.666,337.911 306.265,338.146C305.275,338.729 304.207,338.995 303.056,338.937C302.213,338.885 301.634,338.625 301.327,338.167C301.025,337.698 301.051,337.057 301.41,336.25C301.952,334.99 302.733,333.865 303.744,332.875C304.936,331.781 306.254,330.906 307.702,330.25C308.478,329.865 309.291,329.708 310.14,329.792C310.983,329.849 311.499,330.328 311.681,331.229C311.749,331.51 311.681,331.75 311.473,331.958C311.192,332.208 310.874,332.266 310.515,332.125L310.41,332.125C310.369,332.115 310.332,332.094 310.306,332.062C309.942,331.562 309.577,331.354 309.202,331.437C308.838,331.51 308.452,331.667 308.035,331.917C306.119,333.042 304.686,334.615 303.744,336.625C303.686,336.724 303.65,336.828 303.64,336.937C303.64,337.036 303.671,337.115 303.744,337.167C303.963,337.25 304.213,337.24 304.494,337.125C304.77,337.016 305.041,336.865 305.306,336.667C305.582,336.458 305.817,336.286 306.015,336.146C306.041,336.104 306.056,336.083 306.056,336.083C306.957,335.323 307.848,334.542 308.723,333.75C309.108,333.333 309.598,333.099 310.181,333.042C310.999,333.042 311.338,333.411 311.202,334.146C311.129,334.427 311.046,334.703 310.952,334.979C310.629,336.177 310.619,336.875 310.91,337.083C311.213,337.281 311.671,337.281 312.285,337.083C312.91,336.875 313.525,336.479 314.14,335.896C314.765,335.312 315.285,334.786 315.702,334.312C315.722,334.29 315.742,334.268 315.761,334.247C315.753,334.225 315.743,334.205 315.731,334.187C315.632,334.036 315.408,333.932 315.044,333.875C314.877,333.833 314.721,333.812 314.564,333.812C314.429,333.786 314.288,333.771 314.148,333.771C313.981,333.76 313.846,333.708 313.731,333.625C313.622,333.542 313.596,333.406 313.648,333.208C313.679,333.042 313.762,332.917 313.898,332.833C314.038,332.75 314.189,332.698 314.356,332.667L314.46,332.667C314.877,332.583 315.294,332.531 315.71,332.5C316.085,332.5 316.367,332.406 316.564,332.208C316.757,332.016 316.924,331.745 317.064,331.396C317.841,329.26 318.653,327.115 319.502,324.958C320.403,322.599 321.471,320.292 322.71,318.042C323.236,317.016 323.908,316.115 324.731,315.333C325.174,314.948 325.648,314.641 326.148,314.417C326.648,314.198 327.179,314.125 327.752,314.208C327.861,314.208 327.966,314.245 328.064,314.312C328.158,314.385 328.231,314.458 328.273,314.542C328.356,314.724 328.335,314.87 328.21,314.979C328.085,315.078 327.96,315.146 327.835,315.187C327.169,315.469 326.632,315.849 326.231,316.333C325.841,316.807 325.492,317.333 325.189,317.917C323.95,320.224 322.861,322.573 321.919,324.958C320.971,327.333 320.085,329.74 319.252,332.167C319.804,332.49 320.367,332.646 320.939,332.646C321.189,332.661 321.45,332.698 321.731,332.75C321.783,332.781 321.856,332.792 321.939,332.792C322.075,332.833 322.216,332.875 322.356,332.917C322.398,332.948 322.445,332.99 322.502,333.042C322.57,333.099 322.591,333.156 322.564,333.208C322.564,333.292 322.533,333.37 322.481,333.437C322.424,333.51 322.361,333.557 322.294,333.583C321.637,333.781 320.986,333.854 320.335,333.812L319.794,333.812C318.986,333.786 318.445,334.161 318.169,334.937C317.679,336.177 317.169,337.411 316.627,338.646C315.778,340.62 314.804,342.542 313.689,344.417C312.929,345.734 311.992,346.667 310.877,347.208C309.768,347.76 308.523,348.026 307.148,348C305.955,347.969 304.96,347.547 304.169,346.729C304.059,346.615 303.981,346.49 303.939,346.354C303.898,346.214 303.919,346.073 304.002,345.937C304.117,345.797 304.252,345.719 304.419,345.708C304.585,345.708 304.742,345.729 304.877,345.771C305.059,345.839 305.252,345.927 305.46,346.042C305.601,346.109 305.731,346.177 305.856,346.25C306.83,346.651 307.762,346.714 308.648,346.437C309.538,346.172 310.309,345.552 310.96,344.583C311.627,343.625 312.21,342.635 312.71,341.604C312.726,341.562 312.747,341.531 312.773,341.5C313.498,340.08 314.165,338.644 314.774,337.193ZM185.298,337.437C185.197,337.515 185.095,337.591 184.991,337.667C184.084,338.323 183.058,338.766 181.907,339C180.767,339.24 179.881,339.156 179.241,338.75C178.605,338.349 178.48,337.458 178.866,336.083C179.366,334.667 180.053,333.312 180.928,332.021C181.121,331.745 181.407,331.552 181.782,331.437C182.058,331.385 182.303,331.432 182.511,331.583C182.72,331.74 182.793,331.932 182.741,332.167C182.543,332.625 182.334,333.078 182.116,333.521L181.678,334.396C181.23,335.203 180.928,336.042 180.761,336.917C180.761,337.417 181.428,337.453 182.761,337.021C184.095,336.578 185.392,335.771 186.657,334.604C186.668,334.594 186.679,334.584 186.689,334.574C187.216,333.492 187.739,332.404 188.258,331.312C188.284,331.26 188.31,331.187 188.341,331.104C188.45,330.896 188.56,330.687 188.674,330.479C188.976,330.161 189.341,330.057 189.758,330.167C190.226,330.307 190.409,330.578 190.299,330.979C190.06,331.604 189.841,332.229 189.633,332.854C189.518,333.12 189.409,333.391 189.299,333.667C189.101,334.156 189.039,334.469 189.112,334.604C189.18,334.745 189.492,334.656 190.049,334.333C190.424,334.083 190.789,333.833 191.154,333.583C191.581,333.281 192.008,333 192.424,332.75C193.06,332.365 193.716,332.031 194.383,331.75C194.7,331.615 195.034,331.516 195.383,331.458C195.726,331.391 196.049,331.469 196.341,331.687C196.56,331.87 196.659,332.078 196.633,332.312C196.601,332.552 196.539,332.781 196.445,333C196.263,333.406 196.185,333.667 196.216,333.792C196.258,333.906 196.351,333.927 196.508,333.854C196.674,333.786 196.956,333.625 197.362,333.375C197.779,333.125 198.221,332.849 198.695,332.542C199.305,332.156 199.935,331.786 200.591,331.437C201.143,331.078 201.737,330.865 202.362,330.792C203.221,330.724 203.57,331.073 203.404,331.833C203.247,332.583 202.95,333.479 202.508,334.521C202.06,335.562 202.013,336.203 202.362,336.437C202.721,336.677 203.513,336.354 204.737,335.479C205.76,334.735 206.417,334.264 206.699,334.064C207.19,333.161 207.902,332.417 208.835,331.833C210.179,331 211.564,330.594 212.981,330.604L213.022,330.604C213.382,330.594 213.72,330.62 214.043,330.687C214.595,330.885 214.95,331.208 215.106,331.667C215.257,332.115 215.153,332.615 214.793,333.167C214.002,334.375 212.918,335.052 211.543,335.187C210.627,335.271 209.741,335.229 208.897,335.062C208.731,335.036 208.585,335.078 208.46,335.187C208.335,335.302 208.262,335.437 208.252,335.604C208.002,336.677 208.325,337.365 209.231,337.667C210.356,338.057 211.528,338.057 212.752,337.667C214.137,337.224 215.465,336.396 216.731,335.187C216.932,334.994 217.121,334.817 217.295,334.657C217.971,333.42 218.655,332.181 219.346,330.937C219.356,330.911 219.367,330.885 219.367,330.854C219.534,330.536 219.726,330.24 219.95,329.958C220.2,329.682 220.481,329.573 220.804,329.625C221.138,329.667 221.356,329.865 221.471,330.208C221.606,330.641 221.726,330.885 221.825,330.937C221.919,330.995 222.148,330.953 222.513,330.812C223.263,330.552 223.992,330.365 224.7,330.25C225.409,330.125 225.992,330.156 226.45,330.333C226.715,330.43 226.885,330.643 226.959,330.972C227.052,330.392 227.305,329.894 227.716,329.479C228.216,328.979 228.987,328.708 230.029,328.667C230.612,328.641 231.133,328.719 231.591,328.896C232.05,329.078 232.414,329.411 232.695,329.896C232.914,330.245 232.846,330.552 232.487,330.812C232.247,331.01 231.992,331.036 231.716,330.896C231.55,330.828 231.383,330.724 231.216,330.583L231.216,330.521C231.143,330.469 231.076,330.417 231.008,330.375C230.935,330.266 230.862,330.177 230.779,330.104C230.445,329.87 230.112,329.802 229.779,329.896C229.456,329.995 229.216,330.245 229.05,330.646C228.935,330.979 228.883,331.312 228.883,331.646C228.909,332.062 228.997,332.469 229.154,332.854C229.263,333.094 229.367,333.307 229.466,333.5C229.675,334.057 229.846,334.437 229.987,334.646C230.122,334.844 230.289,334.927 230.487,334.896C230.68,334.87 232.451,334.24 235.8,333C236.518,332.766 236.721,333.057 236.404,333.875C234.43,334.615 233.008,335.208 232.133,335.667C231.492,335.99 231.122,336.25 231.029,336.458C230.945,336.667 231.018,337.042 231.258,337.583C231.258,337.615 231.279,337.646 231.32,337.687C231.581,338.354 231.742,339.042 231.8,339.75C231.883,341.198 230.659,342.208 228.133,342.792C225.607,343.365 223.919,343.375 223.07,342.833C222.211,342.292 221.945,341.615 222.279,340.792C222.612,339.974 223.477,339.141 224.862,338.292C226.237,337.432 227.164,336.812 227.633,336.437C228.102,336.062 228.242,335.646 228.05,335.187C227.992,335.021 227.925,334.865 227.841,334.708C227.685,334.323 227.518,333.917 227.341,333.5C227.132,333.006 227,332.519 226.945,332.037C226.803,332.81 226.405,333.319 225.742,333.562C225.044,333.828 224.815,333.49 225.054,332.542C225.304,331.583 224.877,331.344 223.784,331.812C222.685,332.271 221.773,332.865 221.054,333.583C219.955,334.708 218.981,335.917 218.138,337.208C218.054,337.323 217.981,337.417 217.929,337.5C217.679,337.865 217.429,338.203 217.179,338.521C217.028,338.745 216.841,338.885 216.617,338.937C216.398,338.995 216.174,339.01 215.95,338.979C215.742,338.953 215.586,338.87 215.471,338.729C215.346,338.594 215.336,338.432 215.429,338.25C215.492,338.097 215.558,337.944 215.629,337.79C215.492,337.869 215.352,337.946 215.21,338.021C214.252,338.521 213.444,338.849 212.793,339C212.137,339.156 211.47,339.245 210.793,339.271C209.694,339.328 208.679,339.177 207.752,338.812C206.579,338.339 206.003,337.53 206.023,336.385C205.613,336.687 205.143,336.996 204.612,337.312C203.195,338.146 201.945,338.516 200.862,338.417C199.779,338.307 199.456,337.5 199.904,336C200.362,334.5 200.612,333.661 200.654,333.479C200.695,333.302 200.659,333.198 200.549,333.167C200.435,333.141 200.195,333.266 199.82,333.542C198.695,334.323 197.591,335.135 196.508,335.979C196.049,336.328 195.596,336.698 195.154,337.083C194.872,337.333 194.581,337.583 194.279,337.833L194.237,337.875C193.914,338.198 193.518,338.411 193.049,338.521C192.841,338.594 192.612,338.62 192.362,338.604C192.122,338.578 191.93,338.479 191.779,338.312C191.581,338.135 191.508,337.937 191.549,337.729C191.601,337.521 191.763,337.219 192.029,336.812C192.289,336.396 192.581,335.948 192.904,335.458C193.221,334.958 193.393,334.656 193.424,334.542C193.466,334.417 193.45,334.302 193.383,334.187C193.299,334.078 193.2,334.042 193.091,334.083C192.976,334.125 192.575,334.396 191.883,334.896C191.2,335.396 190.268,336.083 189.091,336.958C188.534,337.375 187.997,337.807 187.487,338.25C187.346,338.375 187.195,338.5 187.029,338.625C186.643,338.948 186.216,339.12 185.758,339.146C185.424,339.177 185.174,339.099 185.008,338.917C184.841,338.74 184.815,338.5 184.924,338.208C185.008,337.99 185.107,337.781 185.216,337.583C185.248,337.537 185.275,337.488 185.298,337.437ZM228.3,341.042C229.175,340.74 229.539,340.146 229.404,339.271C229.404,339.219 229.388,339.146 229.362,339.062C229.32,338.594 229.221,338.229 229.07,337.979C228.914,337.719 228.576,337.724 228.05,338C226.758,338.74 225.56,339.599 224.445,340.583C224.378,340.667 224.315,340.75 224.258,340.833C224.258,340.833 224.247,340.849 224.216,340.875C224.133,340.99 224.122,341.104 224.175,341.229C224.232,341.354 224.341,341.417 224.508,341.417C225.8,341.615 227.065,341.49 228.3,341.042ZM209.772,333.167C209.689,333.25 209.632,333.349 209.606,333.458C209.575,333.557 209.616,333.656 209.731,333.75C210.158,334 210.632,334.094 211.147,334.021C211.658,333.953 212.09,333.76 212.439,333.437C212.799,333.12 212.96,332.729 212.918,332.271C212.877,332.104 212.783,332 212.647,331.958C212.507,331.917 212.366,331.906 212.231,331.917C211.314,332.083 210.491,332.5 209.772,333.167ZM183.421,297.958C183.671,297.958 183.889,298.042 184.087,298.208C184.28,298.375 184.389,298.562 184.421,298.771C184.447,299.187 184.431,299.594 184.379,299.979C184.363,300.396 184.306,300.786 184.212,301.146C184.181,301.302 184.171,301.448 184.171,301.583C183.181,306.073 181.947,310.458 180.462,314.75C180.322,315.24 180.254,315.729 180.254,316.229C180.306,316.828 180.197,317.391 179.921,317.917C179.296,318.849 178.785,319.823 178.4,320.833C175.869,328.073 173.15,335.219 170.233,342.271C167.785,348.312 165.02,354.219 161.921,360C161.077,361.51 160.171,363.01 159.212,364.5C158.728,365.135 158.202,365.729 157.629,366.271C157.103,366.714 156.499,366.839 155.816,366.646C155.098,366.464 154.749,366.005 154.775,365.271C154.874,364.396 155.066,363.547 155.358,362.729C157.15,357.781 159.129,352.917 161.296,348.125C165.285,339.057 169.91,330.349 175.191,322C176.15,320.406 176.889,318.745 177.421,317.021C178.348,314.203 179.223,311.385 180.046,308.562C180.879,305.729 181.592,302.87 182.191,299.979C182.275,299.521 182.384,299.057 182.525,298.583C182.691,298.167 182.988,297.958 183.421,297.958ZM158.691,361.396C161.264,356.729 163.598,351.969 165.691,347.125C167.785,342.281 169.717,337.333 171.483,332.292C171.452,332.323 171.426,332.37 171.4,332.437C171.316,332.479 171.233,332.552 171.15,332.646C170.952,332.995 170.759,333.333 170.566,333.667C168.259,337.958 166.129,342.328 164.171,346.771C162.202,351.229 160.316,355.708 158.525,360.208C158.499,360.26 158.483,360.302 158.483,360.333C158.415,360.469 158.379,360.63 158.379,360.812C158.379,360.99 158.483,361.187 158.691,361.396ZM265.671,296.917C265.671,297.031 265.613,297.146 265.504,297.271C265.405,297.385 265.285,297.469 265.15,297.521C265.009,297.578 264.884,297.573 264.775,297.5C264.066,297.073 263.306,296.781 262.504,296.625C261.697,296.474 260.9,296.354 260.108,296.271C259.509,296.245 258.921,296.177 258.337,296.062C256.197,295.745 254.051,295.469 251.9,295.229C244.842,294.661 237.764,294.349 230.671,294.292C223.837,294.208 216.994,294.365 210.15,294.75C202.426,295.141 194.717,295.719 187.025,296.479C179.952,297.12 172.905,297.885 165.879,298.771C165.436,298.844 164.978,298.896 164.504,298.937C161.827,299.312 159.145,299.708 156.462,300.125C153.785,300.531 151.103,301.031 148.421,301.625C148.212,301.698 147.999,301.75 147.775,301.792C146.733,302.042 145.691,302.323 144.65,302.625C143.598,302.917 142.587,303.312 141.629,303.812C141.494,303.896 141.337,303.953 141.171,303.979C140.962,304.01 140.764,304 140.566,303.958C140.374,303.917 140.223,303.802 140.108,303.604C139.999,303.411 139.983,303.229 140.066,303.062C140.15,302.885 140.29,302.74 140.483,302.625C141.108,302.292 141.764,302 142.441,301.75C144.165,301.182 145.9,300.698 147.65,300.292C149.389,299.891 151.129,299.542 152.879,299.25C157.962,298.391 163.046,297.641 168.129,297C173.223,296.349 178.337,295.771 183.462,295.271C190.671,294.536 197.884,293.953 205.108,293.521C211.4,293.104 217.697,292.865 224.004,292.792C228.613,292.75 233.223,292.802 237.837,292.937C242.462,293.078 247.077,293.349 251.691,293.75C255.9,294.198 260.077,294.844 264.233,295.687C264.619,295.771 264.973,295.911 265.296,296.104C265.572,296.302 265.697,296.573 265.671,296.917ZM184.116,329.208C184.043,329.266 183.912,329.328 183.72,329.396C183.522,329.469 183.314,329.516 183.095,329.542C182.886,329.573 182.72,329.536 182.595,329.437C182.47,329.344 182.459,329.141 182.574,328.833C182.767,328.307 182.975,327.849 183.199,327.458C183.418,327.073 183.704,326.635 184.053,326.146C184.272,325.937 184.517,325.828 184.782,325.812C185.043,325.786 185.261,325.854 185.428,326.021C185.605,326.177 185.662,326.391 185.595,326.667C185.314,327.656 184.824,328.5 184.116,329.208ZM319.686,314.208C319.545,314.224 319.394,314.224 319.228,314.208C319.071,314.182 318.925,314.115 318.79,314C318.623,313.833 318.55,313.682 318.582,313.542C318.608,313.406 318.665,313.281 318.748,313.167C320.05,311.057 321.191,308.849 322.165,306.542C322.774,305.115 323.311,303.641 323.769,302.125C324.071,301.198 324.103,300.198 323.853,299.125C323.603,297.974 322.915,297.161 321.79,296.687C320.915,296.354 320.019,296.177 319.103,296.146L318.623,296.146C316.691,296.229 314.821,296.51 313.019,296.979C309.879,297.745 306.842,298.698 303.915,299.833C300.983,300.958 298.123,302.187 295.332,303.521C283.05,309.495 272.061,317.036 262.353,326.146C259.894,328.354 257.748,330.823 255.915,333.542C255.274,334.5 254.712,335.516 254.228,336.583C253.946,337.198 253.754,337.844 253.644,338.521C253.238,340.745 254.207,342.406 256.54,343.5C258.509,344.417 260.519,344.927 262.561,345.042C264.155,345.177 265.712,345.25 267.228,345.25C267.936,345.25 268.613,345.214 269.269,345.146C278.894,345.047 287.978,343.802 296.519,341.417C296.655,341.365 296.795,341.323 296.936,341.292C297.504,341.099 298.108,340.948 298.748,340.833C298.915,340.807 299.186,340.781 299.561,340.75C299.946,340.724 300.311,340.745 300.644,340.812C300.988,340.885 301.212,341.042 301.311,341.292C301.321,341.432 301.295,341.536 301.228,341.604C301.155,341.677 301.061,341.724 300.936,341.75C300.405,341.891 299.884,342.031 299.373,342.167C297.816,342.573 296.274,342.969 294.748,343.354C286.092,345.573 277.108,346.656 267.79,346.604C265.858,346.604 263.936,346.562 262.019,346.479C259.853,346.396 257.675,345.943 255.498,345.125C251.175,343.443 249.675,340.682 250.978,336.833C251.504,335.292 252.248,333.875 253.207,332.583C254.54,330.656 256.019,328.87 257.644,327.229C259.269,325.578 260.962,323.979 262.728,322.437C270.571,315.521 279.212,309.578 288.644,304.604C291.53,303.094 294.467,301.682 297.457,300.375C300.457,299.073 303.545,297.917 306.728,296.917C309.405,296.073 312.155,295.432 314.978,295C316.113,294.833 317.248,294.75 318.373,294.75C319.108,294.75 319.853,294.781 320.603,294.833C321.478,294.917 322.353,295.099 323.228,295.375C325.603,296.224 326.811,297.786 326.853,300.062C326.853,301.078 326.717,302.057 326.457,303C325.873,304.807 325.165,306.552 324.332,308.229C323.498,309.896 322.592,311.531 321.623,313.125C321.358,313.682 320.92,314.042 320.311,314.208C320.113,314.224 319.936,314.224 319.769,314.208L319.686,314.208ZM333.567,336.187C332.843,336.896 331.994,337.51 331.025,338.021C330.067,338.521 329.26,338.849 328.609,339C327.952,339.156 327.286,339.245 326.609,339.271C325.51,339.328 324.494,339.177 323.567,338.812C322.057,338.203 321.536,337.036 322.004,335.312C322.437,333.828 323.317,332.667 324.65,331.833C325.994,331 327.379,330.594 328.796,330.604L328.838,330.604C329.197,330.594 329.536,330.62 329.859,330.687C330.411,330.885 330.765,331.208 330.921,331.667C331.072,332.115 330.968,332.615 330.609,333.167C329.817,334.375 328.734,335.052 327.359,335.187C326.442,335.271 325.557,335.229 324.713,335.062C324.546,335.036 324.4,335.078 324.275,335.187C324.15,335.302 324.077,335.437 324.067,335.604C323.817,336.677 324.14,337.365 325.046,337.667C326.171,338.057 327.343,338.057 328.567,337.667C329.952,337.224 331.281,336.396 332.546,335.187C333.807,333.979 334.536,333.417 334.734,333.5C334.926,333.573 334.984,333.802 334.9,334.187C334.734,334.802 334.286,335.469 333.567,336.187ZM325.588,333.167C325.504,333.25 325.447,333.349 325.421,333.458C325.39,333.557 325.432,333.656 325.546,333.75C325.973,334 326.447,334.094 326.963,334.021C327.473,333.953 327.906,333.76 328.254,333.437C328.614,333.12 328.775,332.729 328.734,332.271C328.692,332.104 328.598,332 328.463,331.958C328.322,331.917 328.182,331.906 328.046,331.917C327.129,332.083 326.307,332.5 325.588,333.167Z" style="fill:rgb(95,47,9);"/>
        </g>
    </g>
</svg>
